<?xml version="1.0" encoding="utf-8"?>
<!-- Generator: Adobe Illustrator 24.1.3, SVG Export Plug-In . SVG Version: 6.00 Build 0)  -->
<svg version="1.1" id="Layer_1" xmlns="http://www.w3.org/2000/svg" xmlns:xlink="http://www.w3.org/1999/xlink" x="0px" y="0px"
	 viewBox="0 0 512 512" style="enable-background:new 0 0 512 512;" xml:space="preserve">
<style type="text/css">
	.st0{fill:#6FC2D0;}
</style>
<path class="st0" d="M383.9960022,275.1210022c-14.196991,6.9379883-38.4779968,16.5509949-63.9980164,16.5509949
	s-49.8009949-9.6130066-64-16.5509949c-14.1970062,6.9379883-38.477005,16.5509949-63.9960022,16.5509949
	c-25.522995,0-49.8049927-9.6149902-64.0049973-16.5509949c-14.1969986,6.9379883-38.4769974,16.5509949-63.9959946,16.5509949
	v80.9249878c0,22.3540039,18.2900009,40.6440125,40.6439972,40.6440125h302.7120056
	c22.3540039,0,40.6440125-18.2890015,40.6440125-40.6440125v-80.9249878c-25.5220032,0-49.8039856-9.6149902-64.0039978-16.5509949
	H383.9960022z"/>
<path class="st0" d="M115.5910034,227.9909973l12.423996-7.5809937l12.4400024,7.6130066
	c7.3610077,4.4900055,31.0879974,16.2290039,51.5469971,16.2290039c24.5780029,0,51.272995-16.0650024,51.5350037-16.227005
	l12.4609985-7.697998l12.4589996,7.6970062c7.3609924,4.4900055,31.0859985,16.2290039,51.5409851,16.2290039
	s44.178009-11.7389984,51.5929871-16.2619934l12.4249878-7.5809937l12.4400024,7.6130066
	c7.3609924,4.4900055,31.0870056,16.2279968,51.5440063,16.2290039V139.4010468
	c0-22.3540039-18.2890015-40.6439972-40.6440125-40.6439972H104.6439514c-22.3540039,0-40.644001,18.2900009-40.644001,40.6439972
	v104.8509979c20.4539986,0,44.1769981-11.7389984,51.5909996-16.2619934L115.5910034,227.9909973z"/>
</svg>
